%TF.GenerationSoftware,Altium Limited,Altium Designer,21.3.2 (30)*%
G04 Layer_Color=0*
%FSLAX24Y24*%
%MOIN*%
%TF.SameCoordinates,A906CF50-EBD2-4515-BF13-6977FA7C699A*%
%TF.FilePolarity,Positive*%
%TF.FileFunction,Plated,1,2,PTH,Drill*%
%TF.Part,Single*%
G01*
G75*
%TA.AperFunction,OtherDrill,Pad Free-Screw (3680mil,3130mil)*%
%ADD96C,0.1654*%
%TA.AperFunction,ComponentDrill*%
%ADD97C,0.0315*%
%TA.AperFunction,OtherDrill,Pad Free-Screw (1162mil,5316mil)*%
%ADD98C,0.1654*%
%TA.AperFunction,ComponentDrill*%
%ADD99C,0.0402*%
%ADD100O,0.0197X0.0472*%
%ADD101C,0.0354*%
%ADD102C,0.0500*%
%ADD103C,0.0354*%
%ADD104C,0.0402*%
%TA.AperFunction,ViaDrill,NotFilled*%
%ADD105C,0.0120*%
D96*
X36800Y31300D02*
D03*
D97*
X32600Y30779D02*
D03*
Y28850D02*
D03*
D98*
X11620Y53160D02*
D03*
D99*
X22450Y53500D02*
D03*
X21450D02*
D03*
X20450D02*
D03*
X19450D02*
D03*
X18450D02*
D03*
X17450D02*
D03*
D100*
X34978Y26350D02*
D03*
X37577D02*
D03*
D101*
X19350Y35200D02*
D03*
Y37200D02*
D03*
D102*
X11100Y25700D02*
D03*
Y27700D02*
D03*
D103*
X17150Y26800D02*
D03*
X15150D02*
D03*
D104*
X23650Y47850D02*
D03*
Y48850D02*
D03*
Y49850D02*
D03*
Y50850D02*
D03*
X23700Y36900D02*
D03*
Y37900D02*
D03*
Y38900D02*
D03*
Y39900D02*
D03*
Y40900D02*
D03*
D105*
X15850Y50550D02*
D03*
X15856Y51220D02*
D03*
X14140Y39840D02*
D03*
X29920Y29770D02*
D03*
X31350Y28400D02*
D03*
X31770Y29460D02*
D03*
X31250Y32400D02*
D03*
X30050Y30950D02*
D03*
Y28900D02*
D03*
X28050Y29700D02*
D03*
X29250Y28900D02*
D03*
X31090Y27160D02*
D03*
X25050Y35800D02*
D03*
X24956Y30344D02*
D03*
X24900Y31950D02*
D03*
X17040Y41750D02*
D03*
X18600Y41540D02*
D03*
X17100Y38200D02*
D03*
X30900Y45950D02*
D03*
X33800Y47100D02*
D03*
X28577Y49903D02*
D03*
X18050Y50550D02*
D03*
X17550Y50500D02*
D03*
X16950Y50450D02*
D03*
X29380Y48930D02*
D03*
X23650Y43090D02*
D03*
X35766Y29154D02*
D03*
X22340Y31990D02*
D03*
X17300Y32430D02*
D03*
X18880Y50520D02*
D03*
X15980Y43310D02*
D03*
X25894Y28800D02*
D03*
X36278Y28910D02*
D03*
X29610Y48480D02*
D03*
X32962Y47160D02*
D03*
X15136Y50787D02*
D03*
X36022Y28350D02*
D03*
X21530Y35210D02*
D03*
X18930Y31330D02*
D03*
X16460Y39320D02*
D03*
%TF.MD5,4365b2f25f79bed1a39fd8707f5345e1*%
M02*
