%TF.GenerationSoftware,Altium Limited,Altium Designer,21.3.2 (30)*%
G04 Layer_Color=8421504*
%FSLAX24Y24*%
%MOIN*%
%TF.SameCoordinates,A906CF50-EBD2-4515-BF13-6977FA7C699A*%
%TF.FilePolarity,Positive*%
%TF.FileFunction,Paste,Top*%
%TF.Part,Single*%
G01*
G75*
%TA.AperFunction,SMDPad,CuDef*%
%ADD10R,0.0472X0.0551*%
G04:AMPARAMS|DCode=11|XSize=35.4mil|YSize=31.5mil|CornerRadius=3.9mil|HoleSize=0mil|Usage=FLASHONLY|Rotation=180.000|XOffset=0mil|YOffset=0mil|HoleType=Round|Shape=RoundedRectangle|*
%AMROUNDEDRECTD11*
21,1,0.0354,0.0236,0,0,180.0*
21,1,0.0276,0.0315,0,0,180.0*
1,1,0.0079,-0.0138,0.0118*
1,1,0.0079,0.0138,0.0118*
1,1,0.0079,0.0138,-0.0118*
1,1,0.0079,-0.0138,-0.0118*
%
%ADD11ROUNDEDRECTD11*%
%ADD12R,0.0472X0.0315*%
%ADD13R,0.0551X0.0472*%
G04:AMPARAMS|DCode=14|XSize=51.6mil|YSize=24.4mil|CornerRadius=3.1mil|HoleSize=0mil|Usage=FLASHONLY|Rotation=180.000|XOffset=0mil|YOffset=0mil|HoleType=Round|Shape=RoundedRectangle|*
%AMROUNDEDRECTD14*
21,1,0.0516,0.0183,0,0,180.0*
21,1,0.0455,0.0244,0,0,180.0*
1,1,0.0061,-0.0227,0.0092*
1,1,0.0061,0.0227,0.0092*
1,1,0.0061,0.0227,-0.0092*
1,1,0.0061,-0.0227,-0.0092*
%
%ADD14ROUNDEDRECTD14*%
%ADD15R,0.0500X0.0550*%
%ADD16R,0.0354X0.0787*%
%ADD17R,0.0787X0.0354*%
%ADD19R,0.0157X0.0531*%
%ADD20R,0.0630X0.0551*%
%ADD21R,0.1378X0.0630*%
%ADD22R,0.3839X0.4803*%
%TA.AperFunction,ConnectorPad*%
%ADD23R,0.1200X0.0394*%
%ADD24R,0.2756X0.3937*%
%TA.AperFunction,SMDPad,CuDef*%
%ADD25R,0.3937X0.2362*%
%ADD26R,0.0984X0.0669*%
G04:AMPARAMS|DCode=27|XSize=52.8mil|YSize=129.5mil|CornerRadius=6.6mil|HoleSize=0mil|Usage=FLASHONLY|Rotation=270.000|XOffset=0mil|YOffset=0mil|HoleType=Round|Shape=RoundedRectangle|*
%AMROUNDEDRECTD27*
21,1,0.0528,0.1163,0,0,270.0*
21,1,0.0396,0.1295,0,0,270.0*
1,1,0.0132,-0.0582,-0.0198*
1,1,0.0132,-0.0582,0.0198*
1,1,0.0132,0.0582,0.0198*
1,1,0.0132,0.0582,-0.0198*
%
%ADD27ROUNDEDRECTD27*%
D10*
X27500Y29700D02*
D03*
X26752D02*
D03*
X27476Y27726D02*
D03*
X26728D02*
D03*
X26748Y30624D02*
D03*
X27497D02*
D03*
X27500Y28700D02*
D03*
X26752D02*
D03*
X16902Y38800D02*
D03*
X17650D02*
D03*
X15500Y39300D02*
D03*
X14752D02*
D03*
X11576Y39799D02*
D03*
X10828D02*
D03*
X15500Y40600D02*
D03*
X14752D02*
D03*
X12750Y39850D02*
D03*
X13498D02*
D03*
X16902Y39750D02*
D03*
X17650D02*
D03*
X16902Y40750D02*
D03*
X17650D02*
D03*
D11*
X24956Y29750D02*
D03*
X25744Y30124D02*
D03*
Y29376D02*
D03*
X25894Y27750D02*
D03*
X25106Y27376D02*
D03*
Y28124D02*
D03*
D12*
X28628Y26200D02*
D03*
X25872D02*
D03*
X31094D02*
D03*
X33850D02*
D03*
D13*
X25049Y26672D02*
D03*
Y25924D02*
D03*
X30300Y26698D02*
D03*
Y25950D02*
D03*
X34400Y29648D02*
D03*
Y28900D02*
D03*
X34349Y31472D02*
D03*
Y30724D02*
D03*
X18200Y32850D02*
D03*
Y32102D02*
D03*
D14*
X28617Y27900D02*
D03*
Y28400D02*
D03*
X30783Y31400D02*
D03*
X28617Y30900D02*
D03*
X30783D02*
D03*
Y29900D02*
D03*
X28617Y31400D02*
D03*
X30783Y30400D02*
D03*
X28617D02*
D03*
Y29900D02*
D03*
Y28900D02*
D03*
X30783Y29400D02*
D03*
Y28900D02*
D03*
Y27900D02*
D03*
X28617Y29400D02*
D03*
X30783Y28400D02*
D03*
D15*
X19200Y38750D02*
D03*
X20100D02*
D03*
X19100Y39750D02*
D03*
X20000D02*
D03*
X19050Y40750D02*
D03*
X19950D02*
D03*
D16*
X13859Y42494D02*
D03*
X14359D02*
D03*
X14859D02*
D03*
X15359D02*
D03*
X15859D02*
D03*
X16359D02*
D03*
X16859D02*
D03*
X17359D02*
D03*
X17859D02*
D03*
X18359D02*
D03*
X18859D02*
D03*
X19363D02*
D03*
X19859D02*
D03*
X20359D02*
D03*
Y49502D02*
D03*
X13859D02*
D03*
X14359D02*
D03*
X14859D02*
D03*
X15359D02*
D03*
X15859D02*
D03*
X16359D02*
D03*
X16859D02*
D03*
X17359D02*
D03*
X17859D02*
D03*
X18359D02*
D03*
X18859D02*
D03*
X19359D02*
D03*
X19859D02*
D03*
D17*
X20950Y43750D02*
D03*
Y44250D02*
D03*
Y44750D02*
D03*
Y45250D02*
D03*
Y45750D02*
D03*
Y46250D02*
D03*
Y46750D02*
D03*
Y47250D02*
D03*
Y47750D02*
D03*
Y48250D02*
D03*
D19*
X35766Y27403D02*
D03*
X36022D02*
D03*
X36278D02*
D03*
X36533D02*
D03*
X36789D02*
D03*
D20*
X35018Y27315D02*
D03*
X37537D02*
D03*
D21*
X16238Y35550D02*
D03*
Y37550D02*
D03*
D22*
X12193Y36550D02*
D03*
D23*
X16000Y29950D02*
D03*
Y30650D02*
D03*
Y31350D02*
D03*
Y32050D02*
D03*
Y32750D02*
D03*
D24*
X11400Y31300D02*
D03*
D25*
X21739Y30273D02*
D03*
X21700Y26100D02*
D03*
D26*
X20163Y32650D02*
D03*
X21737D02*
D03*
D27*
X18050Y29454D02*
D03*
Y31146D02*
D03*
%TF.MD5,d655f9e93b4f0b533aef98011e203372*%
M02*
