%TF.GenerationSoftware,Altium Limited,Altium Designer,21.3.2 (30)*%
G04 Layer_Color=2752767*
%FSLAX24Y24*%
%MOIN*%
%TF.SameCoordinates,A906CF50-EBD2-4515-BF13-6977FA7C699A*%
%TF.FilePolarity,Positive*%
%TF.FileFunction,Drawing*%
%TF.Part,Single*%
G01*
G75*
%TA.AperFunction,NonConductor*%
%ADD68C,0.0050*%
%ADD107C,0.0067*%
D68*
X36600Y31100D02*
Y31500D01*
X37000D01*
Y31100D01*
X36600D01*
X11420Y52960D02*
Y53360D01*
X11820D01*
Y52960D01*
X11420D01*
X22450Y53300D02*
X22250Y53700D01*
X22650D01*
X22450Y53300D01*
X21450D02*
X21250Y53700D01*
X21650D01*
X21450Y53300D01*
X20450D02*
X20250Y53700D01*
X20650D01*
X20450Y53300D01*
X19450D02*
X19250Y53700D01*
X19650D01*
X19450Y53300D01*
X18450D02*
X18250Y53700D01*
X18650D01*
X18450Y53300D01*
X17450D02*
X17250Y53700D01*
X17650D01*
X17450Y53300D01*
X32773Y52500D02*
X32873Y52600D01*
X32973D01*
X32873Y52700D01*
X32973Y52800D01*
X32873D01*
X32773Y52900D01*
X32673Y52800D01*
X32573D01*
X32673Y52700D01*
X32573Y52600D01*
X32673D01*
X32773Y52500D01*
X35450D02*
X35550Y52600D01*
X35650D01*
X35550Y52700D01*
X35650Y52800D01*
X35550D01*
X35450Y52900D01*
X35350Y52800D01*
X35250D01*
X35350Y52700D01*
X35250Y52600D01*
X35350D01*
X35450Y52500D01*
X34778Y26150D02*
X34878Y26350D01*
X34778Y26550D01*
X34978Y26450D01*
X35178Y26550D01*
X35078Y26350D01*
X35178Y26150D01*
X34978Y26250D01*
X34778Y26150D01*
X37377D02*
X37477Y26350D01*
X37377Y26550D01*
X37577Y26450D01*
X37777Y26550D01*
X37677Y26350D01*
X37777Y26150D01*
X37577Y26250D01*
X37377Y26150D01*
X19250Y35100D02*
Y35000D01*
X19450D01*
Y35100D01*
X19550D01*
Y35300D01*
X19450D01*
Y35400D01*
X19250D01*
Y35300D01*
X19150D01*
Y35100D01*
X19250D01*
Y37100D02*
Y37000D01*
X19450D01*
Y37100D01*
X19550D01*
Y37300D01*
X19450D01*
Y37400D01*
X19250D01*
Y37300D01*
X19150D01*
Y37100D01*
X19250D01*
X10900Y25500D02*
X11000D01*
X11100Y25600D01*
X11200Y25500D01*
X11300D01*
Y25600D01*
X11200Y25700D01*
X11300Y25800D01*
Y25900D01*
X11200D01*
X11100Y25800D01*
X11000Y25900D01*
X10900D01*
Y25800D01*
X11000Y25700D01*
X10900Y25600D01*
Y25500D01*
Y27500D02*
X11000D01*
X11100Y27600D01*
X11200Y27500D01*
X11300D01*
Y27600D01*
X11200Y27700D01*
X11300Y27800D01*
Y27900D01*
X11200D01*
X11100Y27800D01*
X11000Y27900D01*
X10900D01*
Y27800D01*
X11000Y27700D01*
X10900Y27600D01*
Y27500D01*
X17050Y26700D02*
Y26600D01*
X17250D01*
Y26700D01*
X17350D01*
Y26900D01*
X17250D01*
Y27000D01*
X17050D01*
Y26900D01*
X16950D01*
Y26700D01*
X17050D01*
X15050D02*
Y26600D01*
X15250D01*
Y26700D01*
X15350D01*
Y26900D01*
X15250D01*
Y27000D01*
X15050D01*
Y26900D01*
X14950D01*
Y26700D01*
X15050D01*
X23650Y47650D02*
X23450Y48050D01*
X23850D01*
X23650Y47650D01*
Y48650D02*
X23450Y49050D01*
X23850D01*
X23650Y48650D01*
Y49650D02*
X23450Y50050D01*
X23850D01*
X23650Y49650D01*
Y50650D02*
X23450Y51050D01*
X23850D01*
X23650Y50650D01*
X23700Y36700D02*
X23500Y37100D01*
X23900D01*
X23700Y36700D01*
Y37700D02*
X23500Y38100D01*
X23900D01*
X23700Y37700D01*
Y38700D02*
X23500Y39100D01*
X23900D01*
X23700Y38700D01*
Y39700D02*
X23500Y40100D01*
X23900D01*
X23700Y39700D01*
Y40700D02*
X23500Y41100D01*
X23900D01*
X23700Y40700D01*
X15650Y50550D02*
X15850Y50750D01*
X16050Y50550D01*
X15850Y50350D01*
X15650Y50550D01*
X15656Y51220D02*
X15856Y51420D01*
X16056Y51220D01*
X15856Y51020D01*
X15656Y51220D01*
X13940Y39840D02*
X14140Y40040D01*
X14340Y39840D01*
X14140Y39640D01*
X13940Y39840D01*
X29720Y29770D02*
X29920Y29970D01*
X30120Y29770D01*
X29920Y29570D01*
X29720Y29770D01*
X31150Y28400D02*
X31350Y28600D01*
X31550Y28400D01*
X31350Y28200D01*
X31150Y28400D01*
X31570Y29460D02*
X31770Y29660D01*
X31970Y29460D01*
X31770Y29260D01*
X31570Y29460D01*
X31050Y32400D02*
X31250Y32600D01*
X31450Y32400D01*
X31250Y32200D01*
X31050Y32400D01*
X29850Y30950D02*
X30050Y31150D01*
X30250Y30950D01*
X30050Y30750D01*
X29850Y30950D01*
Y28900D02*
X30050Y29100D01*
X30250Y28900D01*
X30050Y28700D01*
X29850Y28900D01*
X27850Y29700D02*
X28050Y29900D01*
X28250Y29700D01*
X28050Y29500D01*
X27850Y29700D01*
X29050Y28900D02*
X29250Y29100D01*
X29450Y28900D01*
X29250Y28700D01*
X29050Y28900D01*
X30890Y27160D02*
X31090Y27360D01*
X31290Y27160D01*
X31090Y26960D01*
X30890Y27160D01*
X24850Y35800D02*
X25050Y36000D01*
X25250Y35800D01*
X25050Y35600D01*
X24850Y35800D01*
X24756Y30344D02*
X24956Y30544D01*
X25156Y30344D01*
X24956Y30144D01*
X24756Y30344D01*
X24700Y31950D02*
X24900Y32150D01*
X25100Y31950D01*
X24900Y31750D01*
X24700Y31950D01*
X16840Y41750D02*
X17040Y41950D01*
X17240Y41750D01*
X17040Y41550D01*
X16840Y41750D01*
X18400Y41540D02*
X18600Y41740D01*
X18800Y41540D01*
X18600Y41340D01*
X18400Y41540D01*
X16900Y38200D02*
X17100Y38400D01*
X17300Y38200D01*
X17100Y38000D01*
X16900Y38200D01*
X30700Y45950D02*
X30900Y46150D01*
X31100Y45950D01*
X30900Y45750D01*
X30700Y45950D01*
X33600Y47100D02*
X33800Y47300D01*
X34000Y47100D01*
X33800Y46900D01*
X33600Y47100D01*
X28377Y49903D02*
X28577Y50103D01*
X28777Y49903D01*
X28577Y49703D01*
X28377Y49903D01*
X17850Y50550D02*
X18050Y50750D01*
X18250Y50550D01*
X18050Y50350D01*
X17850Y50550D01*
X17350Y50500D02*
X17550Y50700D01*
X17750Y50500D01*
X17550Y50300D01*
X17350Y50500D01*
X16750Y50450D02*
X16950Y50650D01*
X17150Y50450D01*
X16950Y50250D01*
X16750Y50450D01*
X29180Y48930D02*
X29380Y49130D01*
X29580Y48930D01*
X29380Y48730D01*
X29180Y48930D01*
X23450Y43090D02*
X23650Y43290D01*
X23850Y43090D01*
X23650Y42890D01*
X23450Y43090D01*
X35566Y29154D02*
X35766Y29354D01*
X35966Y29154D01*
X35766Y28954D01*
X35566Y29154D01*
X22140Y31990D02*
X22340Y32190D01*
X22540Y31990D01*
X22340Y31790D01*
X22140Y31990D01*
X17100Y32430D02*
X17300Y32630D01*
X17500Y32430D01*
X17300Y32230D01*
X17100Y32430D01*
X18680Y50520D02*
X18880Y50720D01*
X19080Y50520D01*
X18880Y50320D01*
X18680Y50520D01*
X15780Y43310D02*
X15980Y43510D01*
X16180Y43310D01*
X15980Y43110D01*
X15780Y43310D01*
X25694Y28800D02*
X25894Y29000D01*
X26094Y28800D01*
X25894Y28600D01*
X25694Y28800D01*
X36078Y28910D02*
X36278Y29110D01*
X36478Y28910D01*
X36278Y28710D01*
X36078Y28910D01*
X29410Y48480D02*
X29610Y48680D01*
X29810Y48480D01*
X29610Y48280D01*
X29410Y48480D01*
X32762Y47160D02*
X32962Y47360D01*
X33162Y47160D01*
X32962Y46960D01*
X32762Y47160D01*
X14936Y50787D02*
X15136Y50987D01*
X15336Y50787D01*
X15136Y50587D01*
X14936Y50787D01*
X35822Y28350D02*
X36022Y28550D01*
X36222Y28350D01*
X36022Y28150D01*
X35822Y28350D01*
X21330Y35210D02*
X21530Y35410D01*
X21730Y35210D01*
X21530Y35010D01*
X21330Y35210D01*
X18730Y31330D02*
X18930Y31530D01*
X19130Y31330D01*
X18930Y31130D01*
X18730Y31330D01*
X16260Y39320D02*
X16460Y39520D01*
X16660Y39320D01*
X16460Y39120D01*
X16260Y39320D01*
D107*
X32800Y30779D02*
G03*
X32800Y30779I-200J0D01*
G01*
Y28850D02*
G03*
X32800Y28850I-200J0D01*
G01*
%TF.MD5,340f2fb884a62408d327085b4efaa5f3*%
M02*
