%TF.GenerationSoftware,Altium Limited,Altium Designer,21.3.2 (30)*%
G04 Layer_Color=128*
%FSLAX24Y24*%
%MOIN*%
%TF.SameCoordinates,A906CF50-EBD2-4515-BF13-6977FA7C699A*%
%TF.FilePolarity,Positive*%
%TF.FileFunction,Drillmap*%
%TF.Part,Single*%
G01*
G75*
%TA.AperFunction,NonConductor*%
%ADD68C,0.0050*%
D68*
X35973Y31300D02*
X37627D01*
X36800Y30473D02*
Y32127D01*
X32443Y30779D02*
X32757D01*
X32600Y30622D02*
Y30937D01*
X32443Y28850D02*
X32757D01*
X32600Y28693D02*
Y29007D01*
X10793Y53160D02*
X12447D01*
X11620Y52333D02*
Y53987D01*
X22249Y53500D02*
X22651D01*
X22450Y53299D02*
Y53701D01*
X21249Y53500D02*
X21651D01*
X21450Y53299D02*
Y53701D01*
X20249Y53500D02*
X20651D01*
X20450Y53299D02*
Y53701D01*
X19249Y53500D02*
X19651D01*
X19450Y53299D02*
Y53701D01*
X18249Y53500D02*
X18651D01*
X18450Y53299D02*
Y53701D01*
X17249Y53500D02*
X17651D01*
X17450Y53299D02*
Y53701D01*
X32586Y52700D02*
X32960D01*
X32773Y52513D02*
Y52887D01*
X35263Y52700D02*
X35637D01*
X35450Y52513D02*
Y52887D01*
X34880Y26350D02*
X35077D01*
X34978Y26252D02*
Y26448D01*
X37478Y26350D02*
X37675D01*
X37577Y26252D02*
Y26448D01*
X19173Y35200D02*
X19527D01*
X19350Y35023D02*
Y35377D01*
X19173Y37200D02*
X19527D01*
X19350Y37023D02*
Y37377D01*
X10850Y25700D02*
X11350D01*
X11100Y25450D02*
Y25950D01*
X10850Y27700D02*
X11350D01*
X11100Y27450D02*
Y27950D01*
X16973Y26800D02*
X17327D01*
X17150Y26623D02*
Y26977D01*
X14973Y26800D02*
X15327D01*
X15150Y26623D02*
Y26977D01*
X23449Y47850D02*
X23851D01*
X23650Y47649D02*
Y48051D01*
X23449Y48850D02*
X23851D01*
X23650Y48649D02*
Y49051D01*
X23449Y49850D02*
X23851D01*
X23650Y49649D02*
Y50051D01*
X23449Y50850D02*
X23851D01*
X23650Y50649D02*
Y51051D01*
X23499Y36900D02*
X23901D01*
X23700Y36699D02*
Y37101D01*
X23499Y37900D02*
X23901D01*
X23700Y37699D02*
Y38101D01*
X23499Y38900D02*
X23901D01*
X23700Y38699D02*
Y39101D01*
X23499Y39900D02*
X23901D01*
X23700Y39699D02*
Y40101D01*
X23499Y40900D02*
X23901D01*
X23700Y40699D02*
Y41101D01*
X15790Y50550D02*
X15910D01*
X15850Y50490D02*
Y50610D01*
X15796Y51220D02*
X15916D01*
X15856Y51160D02*
Y51280D01*
X14080Y39840D02*
X14200D01*
X14140Y39780D02*
Y39900D01*
X29860Y29770D02*
X29980D01*
X29920Y29710D02*
Y29830D01*
X31290Y28400D02*
X31410D01*
X31350Y28340D02*
Y28460D01*
X31710Y29460D02*
X31830D01*
X31770Y29400D02*
Y29520D01*
X31190Y32400D02*
X31310D01*
X31250Y32340D02*
Y32460D01*
X29990Y30950D02*
X30110D01*
X30050Y30890D02*
Y31010D01*
X29990Y28900D02*
X30110D01*
X30050Y28840D02*
Y28960D01*
X27990Y29700D02*
X28110D01*
X28050Y29640D02*
Y29760D01*
X29190Y28900D02*
X29310D01*
X29250Y28840D02*
Y28960D01*
X31030Y27160D02*
X31150D01*
X31090Y27100D02*
Y27220D01*
X24990Y35800D02*
X25110D01*
X25050Y35740D02*
Y35860D01*
X24896Y30344D02*
X25016D01*
X24956Y30284D02*
Y30404D01*
X24840Y31950D02*
X24960D01*
X24900Y31890D02*
Y32010D01*
X16980Y41750D02*
X17100D01*
X17040Y41690D02*
Y41810D01*
X18540Y41540D02*
X18660D01*
X18600Y41480D02*
Y41600D01*
X17040Y38200D02*
X17160D01*
X17100Y38140D02*
Y38260D01*
X30840Y45950D02*
X30960D01*
X30900Y45890D02*
Y46010D01*
X33740Y47100D02*
X33860D01*
X33800Y47040D02*
Y47160D01*
X28517Y49903D02*
X28637D01*
X28577Y49843D02*
Y49963D01*
X17990Y50550D02*
X18110D01*
X18050Y50490D02*
Y50610D01*
X17490Y50500D02*
X17610D01*
X17550Y50440D02*
Y50560D01*
X16890Y50450D02*
X17010D01*
X16950Y50390D02*
Y50510D01*
X29320Y48930D02*
X29440D01*
X29380Y48870D02*
Y48990D01*
X23590Y43090D02*
X23710D01*
X23650Y43030D02*
Y43150D01*
X35706Y29154D02*
X35826D01*
X35766Y29094D02*
Y29214D01*
X22280Y31990D02*
X22400D01*
X22340Y31930D02*
Y32050D01*
X17240Y32430D02*
X17360D01*
X17300Y32370D02*
Y32490D01*
X18820Y50520D02*
X18940D01*
X18880Y50460D02*
Y50580D01*
X15920Y43310D02*
X16040D01*
X15980Y43250D02*
Y43370D01*
X25834Y28800D02*
X25954D01*
X25894Y28740D02*
Y28860D01*
X36218Y28910D02*
X36338D01*
X36278Y28850D02*
Y28970D01*
X29550Y48480D02*
X29670D01*
X29610Y48420D02*
Y48540D01*
X32902Y47160D02*
X33022D01*
X32962Y47100D02*
Y47220D01*
X15076Y50787D02*
X15196D01*
X15136Y50727D02*
Y50847D01*
X35962Y28350D02*
X36082D01*
X36022Y28290D02*
Y28410D01*
X21470Y35210D02*
X21590D01*
X21530Y35150D02*
Y35270D01*
X18870Y31330D02*
X18990D01*
X18930Y31270D02*
Y31390D01*
X16400Y39320D02*
X16520D01*
X16460Y39260D02*
Y39380D01*
%TF.MD5,0ee06af75fd9e1bf72462980825333e2*%
M02*
