%TF.GenerationSoftware,Altium Limited,Altium Designer,21.3.2 (30)*%
G04 Layer_Color=255*
%FSLAX24Y24*%
%MOIN*%
%TF.SameCoordinates,A906CF50-EBD2-4515-BF13-6977FA7C699A*%
%TF.FilePolarity,Positive*%
%TF.FileFunction,Pads,Bot*%
%TF.Part,Single*%
G01*
G75*
%TA.AperFunction,SMDPad,CuDef*%
%ADD13R,0.0551X0.0472*%
%TA.AperFunction,ViaPad*%
%ADD32C,0.2480*%
%TA.AperFunction,ComponentPad*%
%ADD33C,0.0750*%
%ADD34R,0.0598X0.0598*%
%ADD35C,0.0598*%
%ADD36C,0.0374*%
G04:AMPARAMS|DCode=37|XSize=78.7mil|YSize=47.2mil|CornerRadius=14.2mil|HoleSize=0mil|Usage=FLASHONLY|Rotation=90.000|XOffset=0mil|YOffset=0mil|HoleType=Round|Shape=RoundedRectangle|*
%AMROUNDEDRECTD37*
21,1,0.0787,0.0189,0,0,90.0*
21,1,0.0504,0.0472,0,0,90.0*
1,1,0.0283,0.0094,0.0252*
1,1,0.0283,0.0094,-0.0252*
1,1,0.0283,-0.0094,-0.0252*
1,1,0.0283,-0.0094,0.0252*
%
%ADD37ROUNDEDRECTD37*%
%ADD38C,0.0827*%
%ADD39R,0.0827X0.0827*%
%ADD40C,0.1100*%
%ADD41R,0.0827X0.0827*%
%ADD42R,0.0598X0.0598*%
%TA.AperFunction,SMDPad,CuDef*%
%ADD44R,0.0244X0.0551*%
%ADD45R,0.0433X0.0945*%
D13*
X32050Y46548D02*
D03*
Y45800D02*
D03*
X34324Y46522D02*
D03*
Y45774D02*
D03*
X33250Y46548D02*
D03*
Y45800D02*
D03*
X35300Y46548D02*
D03*
Y45800D02*
D03*
D32*
X36800Y31300D02*
D03*
X11620Y53160D02*
D03*
D33*
X32600Y30779D02*
D03*
Y28850D02*
D03*
D34*
X22450Y53500D02*
D03*
D35*
X21450D02*
D03*
X20450D02*
D03*
X19450D02*
D03*
X18450D02*
D03*
X17450D02*
D03*
X23650Y48850D02*
D03*
Y49850D02*
D03*
Y50850D02*
D03*
X23700Y37900D02*
D03*
Y38900D02*
D03*
Y39900D02*
D03*
Y40900D02*
D03*
D36*
X32773Y52700D02*
D03*
X35450D02*
D03*
D37*
X34978Y26350D02*
D03*
X37577D02*
D03*
D38*
X19350Y35200D02*
D03*
X17150Y26800D02*
D03*
D39*
X19350Y37200D02*
D03*
D40*
X11100Y25700D02*
D03*
Y27700D02*
D03*
D41*
X15150Y26800D02*
D03*
D42*
X23650Y47850D02*
D03*
X23700Y36900D02*
D03*
D44*
X35127Y48204D02*
D03*
X34694D02*
D03*
X34261D02*
D03*
X33828D02*
D03*
X33395D02*
D03*
X32962D02*
D03*
X32529D02*
D03*
X32096D02*
D03*
X31663D02*
D03*
D45*
X31119Y52535D02*
D03*
Y48991D02*
D03*
X37478D02*
D03*
Y52535D02*
D03*
%TF.MD5,6819f873d572c7320b7a240df454f61a*%
M02*
