%TF.GenerationSoftware,Altium Limited,Altium Designer,21.3.2 (30)*%
G04 Layer_Color=32896*
%FSLAX24Y24*%
%MOIN*%
%TF.SameCoordinates,A906CF50-EBD2-4515-BF13-6977FA7C699A*%
%TF.FilePolarity,Positive*%
%TF.FileFunction,Legend,Bot*%
%TF.Part,Single*%
G01*
G75*
%TA.AperFunction,NonConductor*%
%ADD47C,0.0094*%
%ADD48C,0.0079*%
%ADD49C,0.0070*%
D47*
X35419Y47779D02*
G03*
X35419Y47779I-47J0D01*
G01*
D48*
X31696Y46865D02*
X32406D01*
Y46320D02*
Y46865D01*
X31696Y46320D02*
Y46865D01*
Y45487D02*
Y46015D01*
Y45487D02*
X32406D01*
Y46015D01*
X33970Y46839D02*
X34680D01*
Y46294D02*
Y46839D01*
X33970Y46294D02*
Y46839D01*
Y45461D02*
Y45989D01*
Y45461D02*
X34680D01*
Y45989D01*
X32896Y46865D02*
X33606D01*
Y46320D02*
Y46865D01*
X32896Y46320D02*
Y46865D01*
Y45487D02*
Y46015D01*
Y45487D02*
X33606D01*
Y46015D01*
X34946Y46865D02*
X35656D01*
Y46320D02*
Y46865D01*
X34946Y46320D02*
Y46865D01*
Y45487D02*
Y46015D01*
Y45487D02*
X35656D01*
Y46015D01*
X31336Y54267D02*
X36552D01*
X31336Y53172D02*
Y54267D01*
Y49629D02*
Y51913D01*
X35371Y48460D02*
X37143D01*
X37261Y49629D02*
Y51913D01*
X36552Y54267D02*
Y54365D01*
X36985D01*
Y54267D02*
Y54365D01*
Y54267D02*
X37261D01*
Y53172D02*
Y54267D01*
D49*
X31780Y46084D02*
Y46264D01*
X32320Y46084D02*
Y46264D01*
X34054Y46058D02*
Y46238D01*
X34594Y46058D02*
Y46238D01*
X32980Y46084D02*
Y46264D01*
X33520Y46084D02*
Y46264D01*
X35030Y46084D02*
Y46264D01*
X35570Y46084D02*
Y46264D01*
%TF.MD5,74768196f30c973c0b52ce4afec36d15*%
M02*
