%TF.GenerationSoftware,Altium Limited,Altium Designer,21.3.2 (30)*%
G04 Layer_Color=8388736*
%FSLAX24Y24*%
%MOIN*%
%TF.SameCoordinates,A906CF50-EBD2-4515-BF13-6977FA7C699A*%
%TF.FilePolarity,Negative*%
%TF.FileFunction,Soldermask,Top*%
%TF.Part,Single*%
G01*
G75*
%TA.AperFunction,SMDPad,CuDef*%
%ADD50R,0.0631X0.0552*%
%TA.AperFunction,ViaPad*%
%ADD53C,0.2560*%
%TA.AperFunction,ComponentPad*%
%ADD54C,0.0830*%
%ADD55R,0.0678X0.0678*%
%ADD56C,0.0678*%
%ADD57C,0.0454*%
G04:AMPARAMS|DCode=58|XSize=86.7mil|YSize=55.2mil|CornerRadius=18.2mil|HoleSize=0mil|Usage=FLASHONLY|Rotation=90.000|XOffset=0mil|YOffset=0mil|HoleType=Round|Shape=RoundedRectangle|*
%AMROUNDEDRECTD58*
21,1,0.0867,0.0189,0,0,90.0*
21,1,0.0504,0.0552,0,0,90.0*
1,1,0.0363,0.0094,0.0252*
1,1,0.0363,0.0094,-0.0252*
1,1,0.0363,-0.0094,-0.0252*
1,1,0.0363,-0.0094,0.0252*
%
%ADD58ROUNDEDRECTD58*%
%ADD59C,0.0907*%
%ADD60R,0.0907X0.0907*%
%ADD61C,0.1180*%
%ADD62R,0.0907X0.0907*%
%ADD63R,0.0678X0.0678*%
%TA.AperFunction,SMDPad,CuDef*%
%ADD74R,0.0552X0.0631*%
G04:AMPARAMS|DCode=75|XSize=43.4mil|YSize=39.5mil|CornerRadius=7.9mil|HoleSize=0mil|Usage=FLASHONLY|Rotation=180.000|XOffset=0mil|YOffset=0mil|HoleType=Round|Shape=RoundedRectangle|*
%AMROUNDEDRECTD75*
21,1,0.0434,0.0236,0,0,180.0*
21,1,0.0276,0.0395,0,0,180.0*
1,1,0.0159,-0.0138,0.0118*
1,1,0.0159,0.0138,0.0118*
1,1,0.0159,0.0138,-0.0118*
1,1,0.0159,-0.0138,-0.0118*
%
%ADD75ROUNDEDRECTD75*%
%ADD76R,0.0552X0.0395*%
G04:AMPARAMS|DCode=77|XSize=59.6mil|YSize=32.4mil|CornerRadius=7.1mil|HoleSize=0mil|Usage=FLASHONLY|Rotation=180.000|XOffset=0mil|YOffset=0mil|HoleType=Round|Shape=RoundedRectangle|*
%AMROUNDEDRECTD77*
21,1,0.0596,0.0183,0,0,180.0*
21,1,0.0455,0.0324,0,0,180.0*
1,1,0.0141,-0.0227,0.0092*
1,1,0.0141,0.0227,0.0092*
1,1,0.0141,0.0227,-0.0092*
1,1,0.0141,-0.0227,-0.0092*
%
%ADD77ROUNDEDRECTD77*%
%ADD78R,0.0580X0.0630*%
%ADD79R,0.0434X0.0867*%
%ADD80R,0.0867X0.0434*%
%ADD81R,0.0828X0.0828*%
%ADD82R,0.0197X0.0571*%
%ADD83R,0.0710X0.0631*%
%ADD84R,0.1458X0.0710*%
%ADD85R,0.3919X0.4883*%
%TA.AperFunction,ConnectorPad*%
%ADD86R,0.1280X0.0474*%
%ADD87R,0.2836X0.4017*%
%TA.AperFunction,SMDPad,CuDef*%
%ADD88R,0.4017X0.2442*%
%ADD89R,0.1064X0.0749*%
G04:AMPARAMS|DCode=90|XSize=60.8mil|YSize=137.5mil|CornerRadius=10.6mil|HoleSize=0mil|Usage=FLASHONLY|Rotation=270.000|XOffset=0mil|YOffset=0mil|HoleType=Round|Shape=RoundedRectangle|*
%AMROUNDEDRECTD90*
21,1,0.0608,0.1163,0,0,270.0*
21,1,0.0396,0.1375,0,0,270.0*
1,1,0.0212,-0.0582,-0.0198*
1,1,0.0212,-0.0582,0.0198*
1,1,0.0212,0.0582,0.0198*
1,1,0.0212,0.0582,-0.0198*
%
%ADD90ROUNDEDRECTD90*%
D50*
X25049Y26672D02*
D03*
Y25924D02*
D03*
X30300Y26698D02*
D03*
Y25950D02*
D03*
X34400Y29648D02*
D03*
Y28900D02*
D03*
X34349Y31472D02*
D03*
Y30724D02*
D03*
X18200Y32850D02*
D03*
Y32102D02*
D03*
D53*
X36800Y31300D02*
D03*
X11620Y53160D02*
D03*
D54*
X32600Y30779D02*
D03*
Y28850D02*
D03*
D55*
X22450Y53500D02*
D03*
D56*
X21450D02*
D03*
X20450D02*
D03*
X19450D02*
D03*
X18450D02*
D03*
X17450D02*
D03*
X23650Y48850D02*
D03*
Y49850D02*
D03*
Y50850D02*
D03*
X23700Y37900D02*
D03*
Y38900D02*
D03*
Y39900D02*
D03*
Y40900D02*
D03*
D57*
X32773Y52700D02*
D03*
X35450D02*
D03*
D58*
X34978Y26350D02*
D03*
X37577D02*
D03*
D59*
X19350Y35200D02*
D03*
X17150Y26800D02*
D03*
D60*
X19350Y37200D02*
D03*
D61*
X11100Y25700D02*
D03*
Y27700D02*
D03*
D62*
X15150Y26800D02*
D03*
D63*
X23650Y47850D02*
D03*
X23700Y36900D02*
D03*
D74*
X27500Y29700D02*
D03*
X26752D02*
D03*
X27476Y27726D02*
D03*
X26728D02*
D03*
X26748Y30624D02*
D03*
X27497D02*
D03*
X27500Y28700D02*
D03*
X26752D02*
D03*
X16902Y38800D02*
D03*
X17650D02*
D03*
X15500Y39300D02*
D03*
X14752D02*
D03*
X11576Y39799D02*
D03*
X10828D02*
D03*
X15500Y40600D02*
D03*
X14752D02*
D03*
X12750Y39850D02*
D03*
X13498D02*
D03*
X16902Y39750D02*
D03*
X17650D02*
D03*
X16902Y40750D02*
D03*
X17650D02*
D03*
D75*
X24956Y29750D02*
D03*
X25744Y30124D02*
D03*
Y29376D02*
D03*
X25894Y27750D02*
D03*
X25106Y27376D02*
D03*
Y28124D02*
D03*
D76*
X28628Y26200D02*
D03*
X25872D02*
D03*
X31094D02*
D03*
X33850D02*
D03*
D77*
X28617Y27900D02*
D03*
Y28400D02*
D03*
X30783Y31400D02*
D03*
X28617Y30900D02*
D03*
X30783D02*
D03*
Y29900D02*
D03*
X28617Y31400D02*
D03*
X30783Y30400D02*
D03*
X28617D02*
D03*
Y29900D02*
D03*
Y28900D02*
D03*
X30783Y29400D02*
D03*
Y28900D02*
D03*
Y27900D02*
D03*
X28617Y29400D02*
D03*
X30783Y28400D02*
D03*
D78*
X19200Y38750D02*
D03*
X20100D02*
D03*
X19100Y39750D02*
D03*
X20000D02*
D03*
X19050Y40750D02*
D03*
X19950D02*
D03*
D79*
X13859Y42494D02*
D03*
X14359D02*
D03*
X14859D02*
D03*
X15359D02*
D03*
X15859D02*
D03*
X16359D02*
D03*
X16859D02*
D03*
X17359D02*
D03*
X17859D02*
D03*
X18359D02*
D03*
X18859D02*
D03*
X19363D02*
D03*
X19859D02*
D03*
X20359D02*
D03*
Y49502D02*
D03*
X13859D02*
D03*
X14359D02*
D03*
X14859D02*
D03*
X15359D02*
D03*
X15859D02*
D03*
X16359D02*
D03*
X16859D02*
D03*
X17359D02*
D03*
X17859D02*
D03*
X18359D02*
D03*
X18859D02*
D03*
X19359D02*
D03*
X19859D02*
D03*
D80*
X20950Y43750D02*
D03*
Y44250D02*
D03*
Y44750D02*
D03*
Y45250D02*
D03*
Y45750D02*
D03*
Y46250D02*
D03*
Y46750D02*
D03*
Y47250D02*
D03*
Y47750D02*
D03*
Y48250D02*
D03*
D81*
X35805Y26350D02*
D03*
X36750D02*
D03*
D82*
X35766Y27403D02*
D03*
X36022D02*
D03*
X36278D02*
D03*
X36533D02*
D03*
X36789D02*
D03*
D83*
X35018Y27315D02*
D03*
X37537D02*
D03*
D84*
X16238Y35550D02*
D03*
Y37550D02*
D03*
D85*
X12193Y36550D02*
D03*
D86*
X16000Y29950D02*
D03*
Y30650D02*
D03*
Y31350D02*
D03*
Y32050D02*
D03*
Y32750D02*
D03*
D87*
X11400Y31300D02*
D03*
D88*
X21739Y30273D02*
D03*
X21700Y26100D02*
D03*
D89*
X20163Y32650D02*
D03*
X21737D02*
D03*
D90*
X18050Y29454D02*
D03*
Y31146D02*
D03*
%TF.MD5,849ba3bfc6c96556ff5a8a7e8c309f18*%
M02*
