%TF.GenerationSoftware,Altium Limited,Altium Designer,21.3.2 (30)*%
G04 Layer_Color=16711935*
%FSLAX24Y24*%
%MOIN*%
%TF.SameCoordinates,A906CF50-EBD2-4515-BF13-6977FA7C699A*%
%TF.FilePolarity,Negative*%
%TF.FileFunction,Soldermask,Bot*%
%TF.Part,Single*%
G01*
G75*
%TA.AperFunction,SMDPad,CuDef*%
%ADD50R,0.0631X0.0552*%
%ADD51R,0.0324X0.0631*%
%ADD52R,0.0513X0.1025*%
%TA.AperFunction,ViaPad*%
%ADD53C,0.2560*%
%TA.AperFunction,ComponentPad*%
%ADD54C,0.0830*%
%ADD55R,0.0678X0.0678*%
%ADD56C,0.0678*%
%ADD57C,0.0454*%
G04:AMPARAMS|DCode=58|XSize=86.7mil|YSize=55.2mil|CornerRadius=18.2mil|HoleSize=0mil|Usage=FLASHONLY|Rotation=90.000|XOffset=0mil|YOffset=0mil|HoleType=Round|Shape=RoundedRectangle|*
%AMROUNDEDRECTD58*
21,1,0.0867,0.0189,0,0,90.0*
21,1,0.0504,0.0552,0,0,90.0*
1,1,0.0363,0.0094,0.0252*
1,1,0.0363,0.0094,-0.0252*
1,1,0.0363,-0.0094,-0.0252*
1,1,0.0363,-0.0094,0.0252*
%
%ADD58ROUNDEDRECTD58*%
%ADD59C,0.0907*%
%ADD60R,0.0907X0.0907*%
%ADD61C,0.1180*%
%ADD62R,0.0907X0.0907*%
%ADD63R,0.0678X0.0678*%
D50*
X32050Y46548D02*
D03*
Y45800D02*
D03*
X34324Y46522D02*
D03*
Y45774D02*
D03*
X33250Y46548D02*
D03*
Y45800D02*
D03*
X35300Y46548D02*
D03*
Y45800D02*
D03*
D51*
X35127Y48204D02*
D03*
X34694D02*
D03*
X34261D02*
D03*
X33828D02*
D03*
X33395D02*
D03*
X32962D02*
D03*
X32529D02*
D03*
X32096D02*
D03*
X31663D02*
D03*
D52*
X31119Y52535D02*
D03*
Y48991D02*
D03*
X37478D02*
D03*
Y52535D02*
D03*
D53*
X36800Y31300D02*
D03*
X11620Y53160D02*
D03*
D54*
X32600Y30779D02*
D03*
Y28850D02*
D03*
D55*
X22450Y53500D02*
D03*
D56*
X21450D02*
D03*
X20450D02*
D03*
X19450D02*
D03*
X18450D02*
D03*
X17450D02*
D03*
X23650Y48850D02*
D03*
Y49850D02*
D03*
Y50850D02*
D03*
X23700Y37900D02*
D03*
Y38900D02*
D03*
Y39900D02*
D03*
Y40900D02*
D03*
D57*
X32773Y52700D02*
D03*
X35450D02*
D03*
D58*
X34978Y26350D02*
D03*
X37577D02*
D03*
D59*
X19350Y35200D02*
D03*
X17150Y26800D02*
D03*
D60*
X19350Y37200D02*
D03*
D61*
X11100Y25700D02*
D03*
Y27700D02*
D03*
D62*
X15150Y26800D02*
D03*
D63*
X23650Y47850D02*
D03*
X23700Y36900D02*
D03*
%TF.MD5,496ff0a7aa301d52459c43c384f63020*%
M02*
